<svg width="23" height="27" viewBox="0 0 23 27" fill="none" xmlns="http://www.w3.org/2000/svg">
<g filter="url(#filter0_d_657_1235)">
<path d="M18.167 18.0004V16.3336C18.167 15.4495 17.8158 14.6016 17.1906 13.9764C16.5654 13.3512 15.7175 13 14.8334 13H8.16614C7.28201 13 6.43409 13.3512 5.80891 13.9764C5.18374 14.6016 4.83252 15.4495 4.83252 16.3336V18.0004" stroke="#3D3D3D" stroke-width="1.66678" stroke-linecap="round" stroke-linejoin="round"/>
<path d="M11.5 9.66703C13.3413 9.66703 14.834 8.17435 14.834 6.33303C14.834 4.49171 13.3413 2.99902 11.5 2.99902C9.6587 2.99902 8.16602 4.49171 8.16602 6.33303C8.16602 8.17435 9.6587 9.66703 11.5 9.66703Z" stroke="#3D3D3D" stroke-width="1.66678" stroke-linecap="round" stroke-linejoin="round"/>
</g>
<defs>
<filter id="filter0_d_657_1235" x="-2.50098" y="0.499023" width="28.002" height="28.002" filterUnits="userSpaceOnUse" color-interpolation-filters="sRGB">
<feFlood flood-opacity="0" result="BackgroundImageFix"/>
<feColorMatrix in="SourceAlpha" type="matrix" values="0 0 0 0 0 0 0 0 0 0 0 0 0 0 0 0 0 0 127 0" result="hardAlpha"/>
<feOffset dy="4"/>
<feGaussianBlur stdDeviation="2"/>
<feComposite in2="hardAlpha" operator="out"/>
<feColorMatrix type="matrix" values="0 0 0 0 0 0 0 0 0 0 0 0 0 0 0 0 0 0 0.25 0"/>
<feBlend mode="normal" in2="BackgroundImageFix" result="effect1_dropShadow_657_1235"/>
<feBlend mode="normal" in="SourceGraphic" in2="effect1_dropShadow_657_1235" result="shape"/>
</filter>
</defs>
</svg>
